<?xml version="1.0" encoding="UTF-8" standalone="no"?>
<svg
   xmlns:dc="http://purl.org/dc/elements/1.1/"
   xmlns:cc="http://creativecommons.org/ns#"
   xmlns:rdf="http://www.w3.org/1999/02/22-rdf-syntax-ns#"
   xmlns:svg="http://www.w3.org/2000/svg"
   xmlns="http://www.w3.org/2000/svg"
   viewBox="0 0 2666.6667 2666.6667"
   height="2666.6667"
   width="2666.6667"
   xml:space="preserve"
   id="svg2"
   version="1.1"><metadata
     id="metadata8"><rdf:RDF><cc:Work
         rdf:about=""><dc:format>image/svg+xml</dc:format><dc:type
           rdf:resource="http://purl.org/dc/dcmitype/StillImage" /></cc:Work></rdf:RDF></metadata><defs
     id="defs6" /><g
     transform="matrix(1.3333333,0,0,-1.3333333,0,2666.6667)"
     id="g10"><g
       transform="scale(0.1)"
       id="g12"><g
         transform="scale(1.22699)"
         id="g14"><path
           id="path16"
           style="fill:#100f0d;fill-opacity:1;fill-rule:evenodd;stroke:none"
           d="M 0,0 H 16300 V 16300 H 0 V 0" /></g><g
         transform="scale(1.22699)"
         id="g18"><path
           id="path20"
           style="fill:#9b6e35;fill-opacity:1;fill-rule:evenodd;stroke:none"
           d="m 2689.4,11688 c -11.35,595.1 -178.26,1152.1 -461.48,1631.7 -122.22,206.9 -266.14,399.4 -428.54,574.7 -34.15,-51.5 -66.89,-104 -97.91,-157.4 -135.79,-233.9 -240.75,-486 -311.15,-749.9 z m 944.56,2206.4 c -162.41,-175.2 -306.42,-367.8 -428.64,-574.7 C 2922.1,12840.1 2755.19,12283 2743.84,11687.8 L 4043,12987 c -70.39,263.9 -175.34,516.1 -311.22,750 -31.04,53.4 -63.68,105.9 -97.82,157.4 z m -1804.16,45 c 168.53,-180.4 317.57,-379.1 443.72,-592.8 229.78,-389.2 384.35,-828.3 443.1,-1297 58.75,468.7 213.32,907.8 443.1,1297 126.14,213.7 275.28,412.4 443.7,592.8 -232,336.1 -532.08,627.1 -886.8,851.2 -354.72,-224.1 -654.71,-515.1 -886.82,-851.2 z m -802.03,634.1 c 282.91,-161.3 540.42,-362.2 764.89,-595 236.51,340 541.61,634.2 901.77,860.7 v 1400.9 L 1027.77,14573.5 Z m -611.927,-611.9 931.407,-931.4 c 71.4,257.8 175.35,504.1 308.41,733.3 33.65,58 69.1,114.7 106.46,170.4 -226.16,236 -486.58,438.9 -773.218,600.7 l -573.059,-573 z m 823.837,-1580.3 c 11.86,201 42.88,398.3 91.79,589.5 L 378.279,13924 37.6207,13583.4 1239.68,12381.3 Z M 22.1547,13523.7 V 12122.6 C 382.3,11896 687.309,11601.9 923.927,11261.9 c 224.563,232.9 482.063,433.6 764.983,595 L 22.1547,13523.7 Z m 4422.2753,1011 573.16,-573.1 -931.5,-931.5 c -71.4,257.9 -175.35,504.1 -308.52,733.4 -33.65,58 -69.19,114.7 -106.46,170.4 226.17,236.1 486.7,439 773.32,600.8 z m -1705.62,1705.6 v -1401.1 c 360.15,-226.5 665.16,-520.6 901.77,-860.7 224.56,232.9 482.07,433.7 764.99,595.1 L 2738.81,16240.3 Z M 4143.45,12331 2716.72,10904.2 1289.9,12331.1 c 8.84,203.1 37.76,402.7 85.17,596.1 l 1322.87,-1322.8 18.78,-18.8 18.78,18.8 1322.78,1322.7 c 47.4,-193.5 76.32,-393 85.17,-596.1 z m 1267.63,-208.4 c -360.14,-226.6 -665.25,-520.8 -901.77,-860.7 -224.46,232.8 -481.97,433.6 -764.88,594.9 l 1666.65,1666.7 V 12122.6 Z M 2689.4,6254.66 c -11.35,595.12 -178.26,1152.09 -461.48,1631.72 -122.22,206.93 -266.14,399.43 -428.54,574.69 -34.15,-51.52 -66.89,-103.94 -97.91,-157.38 -135.79,-233.93 -240.75,-486.02 -311.15,-749.91 L 2689.4,6254.66 Z m 944.56,2206.41 C 3471.55,8285.92 3327.54,8093.31 3205.32,7886.38 2922.1,7406.75 2755.19,6849.61 2743.84,6254.5 L 4043,7553.7 c -70.39,263.9 -175.34,516.06 -311.22,749.99 -31.04,53.44 -63.68,105.86 -97.82,157.38 z m -1804.16,44.99 c 168.53,-180.38 317.57,-379.01 443.72,-592.78 229.78,-389.25 384.35,-828.29 443.1,-1297 58.75,468.71 213.32,907.75 443.1,1297 126.14,213.77 275.28,412.4 443.7,592.78 -232,336.14 -532.08,627.09 -886.8,851.25 C 2361.9,9133.15 2061.91,8842.2 1829.8,8506.06 Z m -802.03,634.12 c 282.91,-161.29 540.42,-362.15 764.89,-594.96 236.51,339.96 541.61,634.13 901.77,860.7 V 10806.8 L 1027.77,9140.18 Z M 415.843,8528.26 1347.25,7596.89 c 71.4,257.79 175.35,504.16 308.41,733.31 33.65,57.95 69.1,114.7 106.46,170.33 -226.16,236.02 -486.58,438.99 -773.218,600.78 L 415.843,8528.26 Z M 1239.68,6947.99 c 11.86,200.97 42.88,398.29 91.79,589.49 L 378.279,8490.69 37.6207,8150.03 1239.68,6947.99 Z M 22.1547,8090.38 V 6689.22 C 382.3,6462.73 687.309,6168.6 923.927,5828.58 c 224.563,232.85 482.063,433.66 764.983,595.03 L 22.1547,8090.38 Z M 4444.43,9101.41 c -286.62,-161.79 -547.15,-364.76 -773.32,-600.88 37.27,-55.63 72.81,-112.38 106.46,-170.33 133.17,-229.31 237.12,-475.52 308.52,-733.47 l 931.5,931.53 -573.16,573.15 z M 2738.81,10807 V 9405.92 c 360.15,-226.57 665.16,-520.64 901.77,-860.7 224.56,232.91 482.07,433.67 764.99,595.06 L 2738.81,10807 Z M 4143.45,6897.7 c -8.85,203.1 -37.77,402.61 -85.17,596.09 L 2735.5,6171.04 l -18.78,-18.74 -18.78,18.74 -1322.87,1322.84 c -47.41,-193.4 -76.33,-392.92 -85.17,-596.1 L 2716.72,5470.96 4143.45,6897.7 Z M 5411.08,6689.22 V 8090.21 L 3744.43,6423.53 c 282.91,-161.29 540.42,-362.19 764.88,-594.95 236.52,339.94 541.63,634.15 901.77,860.64 z M 4334.66,10866.7 c -95.91,-189.4 -172.44,-389.2 -227.68,-596.3 L 5406.06,8971.35 c -11.35,595.06 -178.27,1152.05 -461.48,1631.75 -53.53,90.6 -111.28,178.6 -172.95,263.6 -78.93,108.8 -164.3,212.7 -255.59,311 -34.15,-51.5 -66.89,-103.9 -97.91,-157.4 -29.23,-50.4 -57.05,-101.6 -83.47,-153.6 z m -823.93,0 553.17,-553.2 c 53.03,191.5 124.03,376.7 211.61,553.2 30.33,61.2 62.57,121.2 96.81,180.2 33.65,57.9 69.11,114.7 106.47,170.3 -226.08,236.1 -486.6,439.1 -773.13,600.9 l -573.16,-573.2 378.23,-378.2 z m -756.45,0 1202.06,-1202.07 c 11.85,200.97 42.88,398.27 91.79,589.57 l -612.53,612.5 -340.66,340.6 -340.66,-340.6 z m -756.45,0 -612.63,-612.6 c 48.92,-191.2 79.94,-388.61 91.8,-589.57 l 1202.15,1202.17 -340.65,340.6 -340.67,-340.6 z m -840.1,0 c 87.57,-176.6 158.68,-361.7 211.7,-553.3 l 553.28,553.3 378.22,378.2 -573.15,573.2 c -286.74,-161.7 -547.15,-364.8 -773.328,-600.9 37.267,-55.6 72.808,-112.4 106.458,-170.3 34.25,-59 66.49,-119 96.82,-180.2 z m -496.03,0 c -61.663,-85 -119.506,-173 -173.042,-263.6 C 205.441,10123.4 38.5216,9566.32 27.1753,8971.15 L 1326.35,10270.3 c -55.23,207.1 -131.77,407 -227.78,596.4 -26.31,52 -54.23,103.2 -83.45,153.6 -31.035,53.5 -63.677,105.9 -97.818,157.4 -91.296,-98.3 -176.569,-202.2 -255.602,-311 z M 5055.16,8490.69 4101.86,7537.4 c 48.91,-191.12 80.04,-388.44 91.9,-589.41 l 1202.05,1202.04 -340.65,340.66 z M 2689.4,821.361 c -11.35,595.039 -178.26,1152.089 -461.48,1631.719 -122.22,206.93 -266.14,399.43 -428.54,574.66 -34.15,-51.51 -66.89,-103.92 -97.91,-157.38 -135.79,-233.9 -240.75,-485.98 -311.15,-749.88 L 2689.4,821.361 Z M 3633.96,3027.74 C 3471.55,2852.59 3327.54,2660.01 3205.32,2453.08 2922.1,1973.45 2755.19,1416.31 2743.84,821.199 L 4043,2120.4 c -70.39,263.89 -175.34,516.06 -311.22,749.96 -31.04,53.46 -63.68,105.87 -97.82,157.38 z m -1804.16,44.99 c 168.53,-180.36 317.57,-378.98 443.72,-592.75 229.78,-389.25 384.35,-828.29 443.1,-1297.08 58.75,468.79 213.32,907.83 443.1,1297.08 126.14,213.77 275.28,412.39 443.7,592.75 -232,336.18 -532.08,627.14 -886.8,851.27 -354.72,-224.13 -654.71,-515.09 -886.82,-851.27 z m -802.03,634.15 c 282.91,-161.29 540.42,-362.19 764.89,-594.95 236.51,339.94 541.61,634.07 901.77,860.64 V 5373.48 L 1027.77,3706.88 Z m -611.927,-611.9 931.407,-931.47 c 71.4,257.87 175.35,504.16 308.41,733.34 33.65,57.94 69.1,114.75 106.46,170.33 -226.16,236.03 -486.58,439.05 -773.218,600.83 L 415.843,3094.98 Z m 823.837,-1580.3 c 11.86,200.98 42.88,398.3 91.79,589.5 L 378.279,3057.41 37.6207,2716.73 1239.68,1514.68 Z M 22.1547,2657.07 V 1255.92 C 382.3,1029.35 687.309,735.295 923.927,395.277 1148.49,628.122 1405.99,828.941 1688.91,990.312 L 22.1547,2657.07 Z M 4444.43,3668.09 c -286.62,-161.78 -547.15,-364.8 -773.32,-600.91 37.27,-55.58 72.81,-112.39 106.46,-170.33 133.17,-229.26 237.12,-475.47 308.52,-733.42 l 931.5,931.55 -573.16,573.11 z M 2738.81,5373.72 V 3972.57 c 360.15,-226.57 665.16,-520.62 901.77,-860.64 224.56,232.84 482.07,433.66 764.99,595.03 L 2738.81,5373.72 Z m 1404.64,-3909.4 c -8.85,203.18 -37.77,402.61 -85.17,596.17 L 2735.5,737.74 2716.72,718.916 2697.94,737.74 1375.07,2060.57 c -47.41,-193.4 -76.33,-392.99 -85.17,-596.09 L 2716.72,37.5729 4143.45,1464.32 Z m 1267.63,-208.4 V 2656.83 L 3744.43,990.229 c 282.91,-161.288 540.42,-362.186 764.88,-594.952 236.52,339.939 541.63,634.073 901.77,860.643 z M 4334.66,5433.38 c -95.91,-189.4 -172.44,-389.16 -227.68,-596.25 L 5406.06,3538.01 c -11.35,595.12 -178.27,1152.09 -461.48,1631.72 -53.53,90.71 -111.28,178.65 -172.95,263.65 -78.93,108.73 -164.3,212.72 -255.59,311.01 -34.15,-51.51 -66.89,-103.91 -97.91,-157.38 -29.23,-50.37 -57.05,-101.63 -83.47,-153.63 z m -823.93,0 553.17,-553.22 c 53.03,191.53 124.03,376.77 211.61,553.22 30.33,61.13 62.57,121.2 96.81,180.2 33.65,57.95 69.11,114.67 106.47,170.34 -226.08,236.1 -486.6,439.04 -773.13,600.82 l -573.16,-573.11 378.23,-378.25 z m -756.45,0 1202.06,-1202.04 c 11.85,200.97 42.88,398.29 91.79,589.49 l -612.53,612.55 -340.66,340.67 -340.66,-340.67 z m -756.45,0 -612.63,-612.64 c 48.92,-191.11 79.94,-388.59 91.8,-589.57 l 1202.15,1202.21 -340.65,340.67 -340.67,-340.67 z m -840.1,0 c 87.57,-176.53 158.68,-361.69 211.7,-553.3 l 553.28,553.3 378.22,378.25 -573.15,573.11 c -286.74,-161.7 -547.15,-364.72 -773.328,-600.82 37.267,-55.67 72.808,-112.39 106.458,-170.34 34.25,-59 66.49,-119.07 96.82,-180.2 z m -496.03,0 C 600.037,5348.38 542.194,5260.44 488.658,5169.73 205.441,4690.1 38.5216,4132.96 27.1753,3537.85 L 1326.35,4837.04 c -55.23,207.1 -131.77,406.94 -227.78,596.34 -26.31,52 -54.23,103.26 -83.45,153.63 -31.035,53.47 -63.677,105.87 -97.818,157.38 C 826.006,5646.1 740.733,5542.11 661.7,5433.38 Z M 5055.16,3057.41 4101.86,2104.1 c 48.91,-191.12 80.04,-388.44 91.9,-589.42 l 1202.05,1202.05 -340.65,340.68 z M 8122.72,11688 c -11.36,595.1 -178.27,1152.1 -461.48,1631.7 -122.23,206.9 -266.14,399.4 -428.55,574.7 -34.14,-51.5 -66.88,-104 -97.91,-157.4 -135.78,-233.9 -240.73,-486 -311.14,-749.9 L 8122.72,11688 Z m 944.52,2206.4 c -162.35,-175.2 -306.36,-367.8 -428.61,-574.7 C 8355.41,12840.1 8188.5,12283 8177.17,11687.8 L 9476.29,12987 c -70.34,263.9 -175.31,516.1 -311.17,750 -31.05,53.4 -63.73,105.9 -97.88,157.4 z m -1804.12,45 c 168.53,-180.4 317.57,-379.1 443.71,-592.8 229.79,-389.2 384.35,-828.3 443.11,-1297 58.77,468.7 213.3,907.8 443.13,1297 126.08,213.7 275.23,412.4 443.69,592.8 -232.03,336.1 -532.12,627.1 -886.82,851.2 -354.73,-224.1 -654.71,-515.1 -886.82,-851.2 z m -802.02,634.1 c 282.9,-161.3 540.41,-362.2 764.87,-595 236.52,340 541.62,634.2 901.78,860.7 v 1400.9 L 6461.1,14573.5 Z m -611.94,-611.9 931.4,-931.4 c 71.4,257.8 175.35,504.1 308.42,733.3 33.64,58 69.1,114.7 106.46,170.4 -226.17,236 -486.59,438.9 -773.21,600.7 l -573.07,-573 z M 6673,12381.3 c 11.85,201 42.87,398.3 91.79,589.5 L 5811.6,13924 5470.94,13583.4 6673,12381.3 Z m -1217.53,1142.4 v -1401.1 c 360.15,-226.6 665.15,-520.7 901.77,-860.7 224.56,232.9 482.06,433.6 764.99,595 l -1666.76,1666.8 z m 4422.29,1011 c -286.64,-161.8 -547.19,-364.7 -773.36,-600.8 37.25,-55.7 72.87,-112.4 106.52,-170.4 133.18,-229.3 237.09,-475.5 308.48,-733.4 l 931.5,931.5 -573.14,573.1 z m -1705.64,1705.6 v -1401.1 c 360.15,-226.5 665.12,-520.6 901.8,-860.7 224.54,232.9 482.08,433.7 764.96,595.1 L 8172.12,16240.3 Z M 9576.78,12331 c -8.89,203.1 -37.82,402.6 -85.17,596.1 l -1322.83,-1322.7 -18.75,-18.8 -18.78,18.8 -1322.87,1322.8 c -47.4,-193.4 -76.32,-393 -85.16,-596.1 L 8150.03,10904.2 9576.78,12331 Z m 1267.62,-208.4 v 1400.9 L 9177.75,11856.8 c 282.89,-161.3 540.43,-362.1 764.88,-594.9 236.47,339.9 541.67,634.1 901.77,860.7 z m -5411.02,1498.3 -1426.72,1426.7 c 8.84,203.2 37.66,402.9 85.06,596.3 L 5414.6,14321 l 18.78,-18.8 18.78,18.8 1322.77,1322.8 c 47.41,-193.5 76.23,-393.2 85.07,-596.3 L 5433.38,13620.9 Z m 5055.02,303.1 -953.19,-953.3 c 48.9,-191.1 80.04,-388.4 91.85,-589.4 l 1202.04,1202.1 -340.7,340.6 z M 8122.72,6254.66 c -11.36,595.12 -178.27,1152.09 -461.48,1631.72 -122.23,206.93 -266.14,399.43 -428.55,574.69 -34.14,-51.52 -66.88,-103.94 -97.91,-157.38 C 6999,8069.76 6894.05,7817.67 6823.64,7553.78 L 8122.72,6254.66 Z m 944.52,2206.41 C 8904.89,8285.92 8760.88,8093.31 8638.63,7886.38 8355.41,7406.75 8188.5,6849.61 8177.17,6254.5 l 1299.12,1299.2 c -70.34,263.9 -175.31,516.06 -311.17,749.99 -31.05,53.44 -63.73,105.86 -97.88,157.38 z m -1804.12,44.99 c 168.53,-180.38 317.57,-379.01 443.71,-592.78 229.79,-389.25 384.35,-828.29 443.11,-1297 58.77,468.71 213.3,907.75 443.13,1297 126.08,213.77 275.23,412.4 443.69,592.78 -232.03,336.14 -532.12,627.09 -886.82,851.25 -354.73,-224.16 -654.71,-515.11 -886.82,-851.25 z m -802.02,634.12 c 282.9,-161.29 540.41,-362.15 764.87,-594.96 236.52,339.96 541.62,634.13 901.78,860.7 V 10806.8 L 6461.1,9140.18 Z m -611.94,-611.92 931.4,-931.37 c 71.4,257.79 175.35,504.16 308.42,733.31 33.64,57.95 69.1,114.7 106.46,170.33 -226.17,236.02 -486.59,438.99 -773.21,600.78 L 5849.16,8528.26 Z M 6673,6947.99 c 11.85,200.97 42.87,398.29 91.79,589.49 L 5811.6,8490.69 5470.94,8150.03 6673,6947.99 Z M 5455.47,8090.38 V 6689.22 c 360.15,-226.49 665.15,-520.62 901.77,-860.64 224.56,232.85 482.06,433.66 764.99,595.03 L 5455.47,8090.38 Z m 4422.29,1011.03 c -286.64,-161.79 -547.19,-364.76 -773.36,-600.88 37.25,-55.63 72.87,-112.38 106.52,-170.33 133.18,-229.31 237.09,-475.52 308.48,-733.47 l 931.5,931.53 -573.14,573.15 z M 8172.12,10807 V 9405.92 c 360.15,-226.57 665.12,-520.64 901.8,-860.7 224.54,232.91 482.08,433.67 764.96,595.06 L 8172.12,10807 Z M 9576.78,6897.7 c -8.89,203.1 -37.82,402.61 -85.17,596.09 l -1322.83,-1322.75 -18.75,-18.74 -18.78,18.74 -1322.87,1322.84 c -47.4,-193.4 -76.32,-392.92 -85.16,-596.1 L 8150.03,5470.96 9576.78,6897.7 Z M 10844.4,6689.22 V 8090.21 L 9177.75,6423.53 c 282.89,-161.29 540.43,-362.19 764.88,-594.95 236.47,339.94 541.67,634.15 901.77,860.64 z M 5433.38,9333.71 c 58.85,468.41 213.31,907.19 443,1296.29 47.9,81.1 99.13,160.1 153.45,236.7 88.79,125.2 185.8,244.1 290.25,356 -232,336.2 -531.98,627 -886.7,851.2 l -0.1,0.1 c -354.72,-224.2 -654.71,-515.1 -886.82,-851.3 104.46,-111.9 201.47,-230.8 290.26,-356 54.33,-76.6 105.55,-155.6 153.46,-236.7 229.78,-389.3 384.34,-828.38 443.1,-1297.09 l 0.1,0.8 z m 0,-1146.12 L 6860,9614.22 c -8.84,203.07 -37.66,402.68 -85.07,596.28 l -1322.77,-1322.8 -18.78,-18.79 -18.78,18.79 -1322.88,1322.9 c -47.4,-193.5 -76.22,-393.12 -85.06,-596.28 L 5433.38,8187.59 Z m 4334.6,2679.11 c -95.93,-189.4 -172.46,-389.2 -227.71,-596.3 L 10839.4,8971.35 c -11.3,595.06 -178.3,1152.05 -461.5,1631.75 -53.5,90.6 -111.3,178.6 -172.9,263.6 -79,108.8 -164.3,212.7 -255.68,311 -34.15,-51.5 -66.83,-103.9 -97.88,-157.4 -29.26,-50.4 -57.05,-101.6 -83.46,-153.6 z m -823.97,0 553.22,-553.2 c 52.98,191.5 124.05,376.7 211.58,553.2 30.32,61.2 62.59,121.2 96.82,180.2 33.66,57.9 69.11,114.7 106.44,170.3 -226.08,236.1 -486.56,439.1 -773.11,600.9 l -573.11,-573.2 378.16,-378.2 z m -756.4,0 1202.04,-1202.07 c 11.82,200.97 42.87,398.27 91.77,589.57 l -612.47,612.5 -340.67,340.6 -340.67,-340.6 z m -756.47,0 -612.62,-612.6 c 48.91,-191.2 79.95,-388.61 91.79,-589.57 l 1202.16,1202.17 -340.66,340.6 -340.67,-340.6 z m -840.09,0 c 87.56,-176.6 158.68,-361.7 211.69,-553.3 l 553.29,553.3 378.22,378.2 -573.16,573.2 c -286.72,-161.7 -547.15,-364.8 -773.32,-600.9 37.27,-55.6 72.82,-112.4 106.46,-170.3 34.25,-59 66.48,-119 96.82,-180.2 z m -496.04,0 c -61.66,-85 -119.5,-173 -173.04,-263.6 -283.21,-479.7 -450.13,-1036.78 -461.47,-1631.95 l 1299.16,1299.15 c -55.23,207.1 -131.76,407 -227.77,596.4 -26.3,52 -54.23,103.2 -83.45,153.6 -31.04,53.5 -63.68,105.9 -97.83,157.4 -91.29,-98.3 -176.56,-202.2 -255.6,-311 z M 10488.4,8490.69 9535.21,7537.4 c 48.9,-191.12 80.04,-388.44 91.85,-589.41 l 1202.04,1202.04 -340.7,340.66 z M 8122.72,821.361 c -11.36,595.039 -178.27,1152.089 -461.48,1631.719 -122.23,206.93 -266.14,399.43 -428.55,574.66 -34.14,-51.51 -66.88,-103.92 -97.91,-157.38 C 6999,2636.46 6894.05,2384.38 6823.64,2120.48 L 8122.72,821.361 Z M 9067.24,3027.74 C 8904.89,2852.59 8760.88,2660.01 8638.63,2453.08 8355.41,1973.45 8188.5,1416.31 8177.17,821.199 L 9476.29,2120.4 c -70.34,263.89 -175.31,516.06 -311.17,749.96 -31.05,53.46 -63.73,105.87 -97.88,157.38 z m -1804.12,44.99 c 168.53,-180.36 317.57,-378.98 443.71,-592.75 229.79,-389.25 384.35,-828.29 443.11,-1297.08 58.77,468.79 213.3,907.83 443.13,1297.08 126.08,213.77 275.23,412.39 443.69,592.75 -232.03,336.18 -532.12,627.14 -886.82,851.27 -354.73,-224.13 -654.71,-515.09 -886.82,-851.27 z m -802.02,634.15 c 282.9,-161.29 540.41,-362.19 764.87,-594.95 236.52,339.94 541.62,634.07 901.78,860.64 V 5373.48 L 6461.1,3706.88 Z m -611.94,-611.9 931.4,-931.47 c 71.4,257.87 175.35,504.16 308.42,733.34 33.64,57.94 69.1,114.75 106.46,170.33 -226.17,236.03 -486.59,439.05 -773.21,600.83 L 5849.16,3094.98 Z M 6673,1514.68 c 11.85,200.98 42.87,398.3 91.79,589.5 L 5811.6,3057.41 5470.94,2716.73 6673,1514.68 Z M 5455.47,2657.07 V 1255.92 c 360.15,-226.57 665.15,-520.625 901.77,-860.643 224.56,232.845 482.06,433.664 764.99,595.035 L 5455.47,2657.07 Z m 4422.29,1011.02 c -286.64,-161.78 -547.19,-364.8 -773.36,-600.91 37.25,-55.58 72.87,-112.39 106.52,-170.33 133.18,-229.26 237.09,-475.47 308.48,-733.42 l 931.5,931.55 -573.14,573.11 z M 8172.12,5373.72 V 3972.57 c 360.15,-226.57 665.12,-520.62 901.8,-860.64 224.54,232.84 482.08,433.66 764.96,595.03 L 8172.12,5373.72 Z m 1404.66,-3909.4 c -8.89,203.18 -37.82,402.61 -85.17,596.17 L 8168.78,737.74 8150.03,718.916 8131.25,737.74 6808.38,2060.57 c -47.4,-193.4 -76.32,-392.99 -85.16,-596.09 L 8150.03,37.5729 9576.78,1464.32 Z m 1267.62,-208.4 V 2656.83 L 9177.75,990.229 c 282.89,-161.288 540.43,-362.186 764.88,-594.952 236.47,339.939 541.67,634.073 901.77,860.643 z M 5433.38,3900.36 c 58.85,468.47 213.31,907.27 443,1296.26 47.9,81.18 99.13,160.15 153.45,236.76 88.79,125.27 185.8,244.18 290.25,356 -232,336.19 -531.98,626.98 -886.7,851.19 l -0.1,0.08 c -354.72,-224.13 -654.71,-515.08 -886.82,-851.27 104.46,-111.82 201.47,-230.73 290.26,-356 54.33,-76.61 105.55,-155.58 153.46,-236.76 229.78,-389.24 384.34,-828.28 443.1,-1296.99 l 0.1,0.73 z m 0,-1146.06 L 6860,4180.89 c -8.84,203.1 -37.66,402.77 -85.07,596.25 l -1322.77,-1322.75 -18.78,-18.82 -18.78,18.82 -1322.88,1322.84 c -47.4,-193.41 -76.22,-393.08 -85.06,-596.26 L 5433.38,2754.3 Z m 4334.6,2679.08 c -95.93,-189.4 -172.46,-389.16 -227.71,-596.25 L 10839.4,3538.01 c -11.3,595.12 -178.3,1152.09 -461.5,1631.72 -53.5,90.71 -111.3,178.65 -172.9,263.65 -79,108.73 -164.3,212.72 -255.68,311.01 -34.15,-51.51 -66.83,-103.91 -97.88,-157.38 -29.26,-50.37 -57.05,-101.63 -83.46,-153.63 z m -823.97,0 553.22,-553.22 c 52.98,191.53 124.05,376.77 211.58,553.22 30.32,61.13 62.59,121.2 96.82,180.2 33.66,57.95 69.11,114.67 106.44,170.34 -226.08,236.1 -486.56,439.04 -773.11,600.82 l -573.11,-573.11 378.16,-378.25 z m -756.4,0 1202.04,-1202.04 c 11.82,200.97 42.87,398.29 91.77,589.49 l -612.47,612.55 -340.67,340.67 -340.67,-340.67 z m -756.47,0 -612.62,-612.64 c 48.91,-191.11 79.95,-388.59 91.79,-589.57 l 1202.16,1202.21 -340.66,340.67 -340.67,-340.67 z m -840.09,0 c 87.56,-176.53 158.68,-361.69 211.69,-553.3 l 553.29,553.3 378.22,378.25 -573.16,573.11 c -286.72,-161.7 -547.15,-364.72 -773.32,-600.82 37.27,-55.67 72.82,-112.39 106.46,-170.34 34.25,-59 66.48,-119.07 96.82,-180.2 z m -496.04,0 c -61.66,-85 -119.5,-172.94 -173.04,-263.65 C 5638.76,4690.1 5471.84,4132.96 5460.5,3537.85 l 1299.16,1299.19 c -55.23,207.1 -131.76,406.94 -227.77,596.34 -26.3,52 -54.23,103.26 -83.45,153.63 -31.04,53.47 -63.68,105.87 -97.83,157.38 -91.29,-98.29 -176.56,-202.28 -255.6,-311.01 z M 10488.4,3057.41 9535.21,2104.1 c 48.9,-191.12 80.04,-388.44 91.85,-589.42 l 1202.04,1202.05 -340.7,340.68 z M 13556,11688 c -11.3,595.1 -178.2,1152.1 -461.4,1631.7 -122.3,206.9 -266.2,399.4 -428.6,574.7 -34.1,-51.5 -66.9,-104 -97.9,-157.4 -135.8,-233.9 -240.8,-486 -311.2,-749.9 L 13556,11688 Z m 944.6,2206.4 c -162.4,-175.2 -306.4,-367.8 -428.7,-574.7 -283.2,-479.6 -450.1,-1036.7 -461.4,-1631.9 l 1299.2,1299.2 c -70.4,263.9 -175.4,516.1 -311.3,750 -31,53.4 -63.6,105.9 -97.8,157.4 z m -1804.2,45 c 168.6,-180.4 317.6,-379.1 443.7,-592.8 229.9,-389.2 384.4,-828.3 443.2,-1297 58.7,468.7 213.2,907.8 443.1,1297 126.1,213.7 275.2,412.4 443.7,592.8 -232.1,336.1 -532.2,627.1 -886.8,851.2 -354.7,-224.1 -654.7,-515.1 -886.9,-851.2 z m -802,634.1 c 282.9,-161.3 540.4,-362.2 764.9,-595 236.5,340 541.6,634.2 901.8,860.7 v 1400.9 l -1666.7,-1666.6 z m -611.9,-611.9 931.4,-931.4 c 71.4,257.8 175.3,504.1 308.4,733.3 33.6,58 69.1,114.7 106.4,170.4 -226.1,236 -486.5,438.9 -773.2,600.7 l -573,-573 z m 823.8,-1580.3 c 11.8,201 42.9,398.3 91.8,589.5 l -953.2,953.2 -340.6,-340.6 1202,-1202.1 z m -1217.5,1142.4 v -1401.1 c 360.1,-226.6 665.2,-520.7 901.8,-860.7 224.5,232.9 482,433.6 764.9,595 l -1666.7,1666.8 z m 4422.3,1011 c -286.7,-161.8 -547.2,-364.7 -773.4,-600.8 37.3,-55.7 72.9,-112.4 106.5,-170.4 133.2,-229.3 237.1,-475.5 308.5,-733.4 l 931.6,931.5 -573.2,573.1 z m -1705.7,1705.6 v -1401.1 c 360.2,-226.5 665.2,-520.6 901.8,-860.7 224.6,232.9 482.1,433.7 765,595.1 l -1666.8,1666.7 z M 15010.1,12331 c -8.9,203.1 -37.8,402.6 -85.2,596.1 l -1322.7,-1322.7 -18.9,-18.8 -18.7,18.8 -1322.9,1322.8 c -47.4,-193.4 -76.3,-393 -85.2,-596.1 l 1426.8,-1426.9 1426.8,1426.8 z m 1267.6,-208.4 v 1400.9 l -1666.6,-1666.7 c 282.8,-161.3 540.4,-362.1 764.8,-594.9 236.5,339.9 541.7,634.1 901.8,860.7 z m -5411,1498.3 1426.6,1426.6 c -8.8,203.1 -37.7,402.8 -85,596.3 l -1322.9,-1322.8 -18.7,-18.8 -18.8,18.8 -1322.87,1322.9 c -47.36,-193.4 -76.21,-393.1 -85.09,-596.3 l 1426.76,-1426.7 z m 5055,303.1 -953.2,-953.3 c 48.9,-191.1 80,-388.4 91.9,-589.4 l 1202,1202.1 -340.7,340.6 z M 13556,6254.66 c -11.3,595.12 -178.2,1152.09 -461.4,1631.72 -122.3,206.93 -266.2,399.43 -428.6,574.69 -34.1,-51.52 -66.9,-103.94 -97.9,-157.38 -135.8,-233.93 -240.8,-486.02 -311.2,-749.91 L 13556,6254.66 Z m 944.6,2206.41 c -162.4,-175.15 -306.4,-367.76 -428.7,-574.69 -283.2,-479.63 -450.1,-1036.77 -461.4,-1631.88 l 1299.2,1299.2 c -70.4,263.9 -175.4,516.06 -311.3,749.99 -31,53.44 -63.6,105.86 -97.8,157.38 z m -1804.2,44.99 c 168.6,-180.38 317.6,-379.01 443.7,-592.78 229.9,-389.25 384.4,-828.29 443.2,-1297 58.7,468.71 213.2,907.75 443.1,1297 126.1,213.77 275.2,412.4 443.7,592.78 -232.1,336.14 -532.2,627.09 -886.8,851.25 -354.7,-224.16 -654.7,-515.11 -886.9,-851.25 z m -802,634.12 c 282.9,-161.29 540.4,-362.15 764.9,-594.96 236.5,339.96 541.6,634.13 901.8,860.7 V 10806.8 L 11894.4,9140.18 Z m -611.9,-611.92 931.4,-931.37 c 71.4,257.79 175.3,504.16 308.4,733.31 33.6,57.95 69.1,114.7 106.4,170.33 -226.1,236.02 -486.5,438.99 -773.2,600.78 l -573,-573.05 z m 823.8,-1580.27 c 11.8,200.97 42.9,398.29 91.8,589.49 l -953.2,953.21 -340.6,-340.66 1202,-1202.04 z M 10888.8,8090.38 V 6689.22 c 360.1,-226.49 665.2,-520.62 901.8,-860.64 224.5,232.85 482,433.66 764.9,595.03 l -1666.7,1666.77 z m 4422.3,1011.03 c -286.7,-161.79 -547.2,-364.76 -773.4,-600.88 37.3,-55.63 72.9,-112.38 106.5,-170.33 133.2,-229.31 237.1,-475.52 308.5,-733.47 l 931.6,931.53 -573.2,573.15 z M 13605.4,10807 V 9405.92 c 360.2,-226.57 665.2,-520.64 901.8,-860.7 224.6,232.91 482.1,433.67 765,595.06 L 13605.4,10807 Z M 15010.1,6897.7 13583.3,5470.96 12156.5,6897.78 c 8.9,203.18 37.8,402.7 85.2,596.1 l 1322.9,-1322.84 18.7,-18.74 18.9,18.74 1322.7,1322.75 c 47.4,-193.48 76.3,-392.99 85.2,-596.09 z m 1267.6,-208.48 V 8090.21 L 14611.1,6423.53 c 282.8,-161.29 540.4,-362.19 764.8,-594.95 236.5,339.94 541.7,634.15 901.8,860.64 z m -5411,2644.49 c 58.8,468.41 213.3,907.19 443,1296.29 47.9,81.1 99.1,160.1 153.5,236.7 88.7,125.2 185.7,244.1 290.2,356 -232,336.2 -531.9,627 -886.7,851.2 l -0.1,0.1 c -354.8,-224.2 -654.7,-515.1 -886.8,-851.3 104.4,-111.9 201.5,-230.8 290.2,-356 54.4,-76.6 105.6,-155.6 153.5,-236.7 229.8,-389.3 384.3,-828.38 443.1,-1297.09 l 0.1,0.8 z m 0,-1146.12 1426.6,1426.63 c -8.8,203.07 -37.7,402.68 -85,596.28 l -1322.9,-1322.8 -18.7,-18.79 -18.8,18.79 -1322.87,1322.9 c -47.36,-193.5 -76.21,-393.12 -85.09,-596.28 L 10866.7,8187.59 Z m 4334.6,2679.11 c -95.9,-189.4 -172.5,-389.2 -227.7,-596.3 l 1299.1,-1299.05 c -11.3,595.06 -178.3,1152.05 -461.5,1631.75 -53.5,90.6 -111.3,178.6 -172.9,263.6 -79,108.8 -164.3,212.7 -255.6,311 -34.1,-51.5 -66.9,-103.9 -98,-157.4 -29.1,-50.4 -57,-101.6 -83.4,-153.6 z m -823.9,0 553.1,-553.2 c 53,191.5 124.1,376.7 211.6,553.2 30.3,61.2 62.6,121.2 96.8,180.2 33.7,57.9 69.1,114.7 106.6,170.3 -226.1,236.1 -486.7,439.1 -773.2,600.9 l -573.1,-573.2 378.2,-378.2 z m -756.5,0 1202.1,-1202.07 c 11.8,200.97 42.8,398.27 91.7,589.57 l -612.5,612.5 -340.6,340.6 -340.7,-340.6 z m -756.4,0 -612.6,-612.6 c 48.9,-191.2 79.9,-388.61 91.7,-589.57 l 1202.2,1202.17 -340.7,340.6 -340.6,-340.6 z m -840.1,0 c 87.5,-176.6 158.7,-361.7 211.7,-553.3 l 553.3,553.3 378.2,378.2 -573.2,573.2 c -286.7,-161.7 -547.1,-364.8 -773.3,-600.9 37.2,-55.6 72.8,-112.4 106.5,-170.3 34.2,-59 66.4,-119 96.8,-180.2 z m -496.1,0 c -61.6,-85 -119.5,-173 -173,-263.6 -283.2,-479.7 -450.1,-1036.78 -461.5,-1631.95 l 1299.1,1299.15 c -55.1,207.1 -131.7,407 -227.7,596.4 -26.3,52 -54.3,103.2 -83.4,153.6 -31.1,53.5 -63.7,105.9 -97.8,157.4 -91.4,-98.3 -176.6,-202.2 -255.7,-311 z m 4393.4,-2376.01 -953.2,-953.29 c 48.9,-191.12 80,-388.44 91.9,-589.41 l 1202,1202.04 -340.7,340.66 z M 13556,821.361 c -11.3,595.039 -178.2,1152.089 -461.4,1631.719 -122.3,206.93 -266.2,399.43 -428.6,574.66 -34.1,-51.51 -66.9,-103.92 -97.9,-157.38 -135.8,-233.9 -240.8,-485.98 -311.2,-749.88 L 13556,821.361 Z m 944.6,2206.379 c -162.4,-175.15 -306.4,-367.73 -428.7,-574.66 -283.2,-479.63 -450.1,-1036.77 -461.4,-1631.881 L 14909.7,2120.4 c -70.4,263.89 -175.4,516.06 -311.3,749.96 -31,53.46 -63.6,105.87 -97.8,157.38 z m -1804.2,44.99 c 168.6,-180.36 317.6,-378.98 443.7,-592.75 229.9,-389.25 384.4,-828.29 443.2,-1297.08 58.7,468.79 213.2,907.83 443.1,1297.08 126.1,213.77 275.2,412.39 443.7,592.75 -232.1,336.18 -532.2,627.14 -886.8,851.27 -354.7,-224.13 -654.7,-515.09 -886.9,-851.27 z m -802,634.15 1666.7,1666.6 V 3972.57 c -360.2,-226.57 -665.3,-520.7 -901.8,-860.64 -224.5,232.76 -482,433.66 -764.9,594.95 z m -611.9,-611.9 573,573.03 c 286.7,-161.78 547.1,-364.8 773.2,-600.83 -37.3,-55.58 -72.8,-112.39 -106.4,-170.33 -133.1,-229.18 -237,-475.47 -308.4,-733.34 l -931.4,931.47 z m 823.8,-1580.3 c 11.8,200.98 42.9,398.3 91.8,589.5 l -953.2,953.23 -340.6,-340.68 1202,-1202.05 z M 10888.8,2657.07 V 1255.92 c 360.1,-226.57 665.2,-520.625 901.8,-860.643 224.5,232.845 482,433.664 764.9,595.035 L 10888.8,2657.07 Z m 4422.3,1011.02 573.2,-573.11 -931.6,-931.55 c -71.4,257.95 -175.3,504.16 -308.5,733.42 -33.6,57.94 -69.2,114.75 -106.5,170.33 226.2,236.11 486.7,439.13 773.4,600.91 z m -1705.7,1705.63 1666.8,-1666.76 c -282.9,-161.37 -540.4,-362.19 -765,-595.03 -236.6,340.02 -541.6,634.07 -901.8,860.64 V 5373.72 Z M 15010.1,1464.32 13583.3,37.5729 12156.5,1464.48 c 8.9,203.1 37.8,402.69 85.2,596.09 l 1322.9,-1322.83 18.7,-18.824 18.9,18.824 1322.7,1322.75 c 47.4,-193.56 76.3,-392.99 85.2,-596.17 z m 1267.6,-208.4 c -360.1,-226.57 -665.3,-520.704 -901.8,-860.643 -224.4,232.766 -482,433.664 -764.8,594.952 L 16277.7,2656.83 V 1255.92 Z m -5411,2644.44 -0.1,-0.73 c -58.8,468.71 -213.3,907.75 -443.1,1296.99 -47.9,81.18 -99.1,160.15 -153.5,236.76 -88.7,125.27 -185.8,244.18 -290.2,356 232.1,336.19 532,627.14 886.8,851.27 l 0.1,-0.08 c 354.8,-224.21 654.7,-515 886.7,-851.19 -104.5,-111.82 -201.5,-230.73 -290.2,-356 -54.4,-76.61 -105.6,-155.58 -153.5,-236.76 -229.7,-388.99 -384.2,-827.79 -443,-1296.26 z m 0,-1146.06 -1426.76,1426.67 c 8.88,203.18 37.73,402.85 85.09,596.26 l 1322.87,-1322.84 18.8,-18.82 18.7,18.82 1322.9,1322.75 c 47.3,-193.48 76.2,-393.15 85,-596.25 L 10866.7,2754.3 Z m 4836.6,2679.08 c 54.4,-76.61 105.6,-155.58 153.5,-236.76 229.8,-389.24 384.3,-828.28 443.1,-1296.99 l 0.1,0.73 v -464.79 l -18.8,18.82 -1322.9,1322.84 c -47.3,-193.41 -76.2,-393.08 -85,-596.26 L 16300,2754.3 V 1207.27 l -0.1,0.08 c -354.7,-224.211 -654.7,-515.087 -886.8,-851.276 104.5,-111.898 201.5,-230.809 290.2,-355.9912262 h -65 C 15559.3,108.803 15474,212.799 15382.7,311.089 c -34.1,-51.51 -66.9,-103.913 -98,-157.378 -29.1,-50.368 -57,-101.6304 -83.4,-153.6282262 h -59.2 C 15172.4,61.208 15204.7,121.273 15238.9,180.199 c 33.7,57.944 69.1,114.749 106.6,170.335 -226.1,236.106 -486.7,439.125 -773.2,600.903 l -573.1,-573.11 378.2,-378.2442262 h -75.2 L 13961.6,340.754 13620.9,0.0827738 h -75.1 L 13205.1,340.754 12864.5,0.0827738 h -75.1 l 378.2,378.2442262 -573.2,573.11 c -286.7,-161.699 -547.1,-364.797 -773.3,-600.903 37.2,-55.586 72.8,-112.391 106.5,-170.335 34.2,-58.926 66.4,-118.991 96.8,-180.1162262 h -59.2 C 11938.9,52.0806 11910.9,103.343 11881.8,153.711 c -31.1,53.465 -63.7,105.868 -97.8,157.378 -91.4,-98.29 -176.6,-202.286 -255.7,-311.0062262 h -65.1 C 11551.9,125.265 11648.9,244.176 11753.4,356.074 c -232,336.189 -531.9,626.982 -886.7,851.196 l -0.1,0.08 C 10511.8,983.139 10211.9,692.263 9979.8,356.074 10084.2,244.176 10181.3,125.265 10270,0.0827738 h -65 C 10126,108.803 10040.7,212.799 9949.32,311.089 9915.17,259.579 9882.49,207.176 9851.44,153.711 9822.18,103.343 9794.39,52.0806 9767.98,0.0827738 h -59.17 C 9739.13,61.208 9771.4,121.273 9805.63,180.199 c 33.66,57.944 69.11,114.749 106.44,170.335 -226.08,236.106 -486.56,439.125 -773.11,600.903 L 8565.85,378.327 8944.01,0.0827738 h -75.06 L 8528.28,340.754 8187.61,0.0827738 h -75.14 L 7771.81,340.754 7431.14,0.0827738 h -75.11 L 7734.25,378.327 7161.09,951.437 C 6874.37,789.738 6613.94,586.64 6387.77,350.534 c 37.27,-55.586 72.82,-112.391 106.46,-170.335 34.25,-58.926 66.48,-118.991 96.82,-180.1162262 h -59.16 C 6505.59,52.0806 6477.66,103.343 6448.44,153.711 c -31.04,53.465 -63.68,105.868 -97.83,157.378 -91.29,-98.29 -176.56,-202.286 -255.6,-311.0062262 h -65.18 C 6118.62,125.265 6215.63,244.176 6320.08,356.074 c -232,336.189 -531.98,626.982 -886.7,851.196 l -0.1,0.08 C 5078.56,983.139 4778.57,692.263 4546.46,356.074 4650.92,244.176 4747.93,125.265 4836.72,0.0827738 h -65.09 C 4692.7,108.803 4607.33,212.799 4516.04,311.089 4481.89,259.579 4449.15,207.176 4418.13,153.711 4388.9,103.343 4361.08,52.0806 4334.66,0.0827738 h -59.15 C 4305.84,61.208 4338.08,121.273 4372.32,180.199 c 33.65,57.944 69.11,114.749 106.47,170.335 -226.08,236.106 -486.6,439.125 -773.13,600.903 L 3132.5,378.327 3510.73,0.0827738 H 3435.6 L 3094.94,340.754 2754.28,0.0827738 h -75.13 L 2338.5,340.754 1997.83,0.0827738 h -75.12 L 2300.93,378.327 1727.78,951.437 C 1441.04,789.738 1180.63,586.64 954.452,350.534 991.719,294.948 1027.26,238.143 1060.91,180.199 1095.16,121.273 1127.4,61.208 1157.73,0.0827738 h -59.16 C 1072.26,52.0806 1044.34,103.343 1015.12,153.711 984.085,207.176 951.443,259.579 917.302,311.089 826.006,212.799 740.733,108.803 661.7,0.0827738 H 596.516 C 685.3,125.265 782.32,244.176 886.765,356.074 654.772,692.263 354.781,983.056 0.0604885,1207.27 V 2754.3 L 1426.68,4180.89 c -8.84,203.1 -37.66,402.77 -85.06,596.25 L 18.8438,3454.39 0.0604885,3435.57 v 464.79 C 58.9126,4368.83 213.378,4807.63 443.063,5196.62 c 47.903,81.18 99.131,160.15 153.453,236.76 88.784,125.27 185.804,244.18 290.249,356 C 654.772,6125.57 354.781,6416.36 0.0604885,6640.57 V 8187.59 L 1426.68,9614.22 c -8.84,203.07 -37.66,402.68 -85.06,596.28 L 18.8438,8887.7 0.0604885,8868.91 v 464.8 C 58.9126,9802.12 213.378,10240.9 443.063,10630 c 47.903,81.1 99.131,160.1 153.453,236.7 88.784,125.2 185.804,244.1 290.249,356 -231.993,336.2 -531.984,627 -886.7045115,851.2 v 1547 L 1426.68,15047.5 c -8.84,203.1 -37.66,402.8 -85.06,596.3 L 18.8438,14321 0.0604885,14302.2 V 14767 C 58.9126,15235.4 213.378,15674.2 443.063,16063.3 c 47.903,81.1 99.131,160.1 153.453,236.7 H 661.7 C 600.037,16215 542.194,16127.1 488.658,16036.4 205.441,15556.7 38.5216,14999.6 27.1753,14404.5 L 1326.35,15703.6 c -55.23,207.1 -131.77,407 -227.78,596.4 h 59.16 c 87.57,-176.6 158.68,-361.6 211.7,-553.3 l 553.28,553.3 h 75.12 l -612.63,-612.6 c 48.92,-191.1 79.94,-388.6 91.8,-589.6 L 2679.15,16300 h 75.13 l 1202.06,-1202.1 c 11.85,201 42.88,398.4 91.79,589.6 L 3435.6,16300 h 75.13 l 553.17,-553.2 c 53.03,191.6 124.03,376.7 211.61,553.2 h 59.15 c -95.91,-189.4 -172.44,-389.2 -227.68,-596.3 l 1299.08,-1299 c -11.35,595 -178.27,1152 -461.48,1631.7 -53.53,90.7 -111.28,178.6 -172.95,263.6 h 65.09 c 54.33,-76.6 105.55,-155.6 153.46,-236.7 229.78,-389.3 384.34,-828.4 443.1,-1297.1 l 0.1,0.8 c 58.85,468.4 213.31,907.2 443,1296.3 47.9,81.1 99.13,160.1 153.45,236.7 h 65.18 c -61.66,-85 -119.5,-172.9 -173.04,-263.6 -283.21,-479.7 -450.13,-1036.8 -461.47,-1631.9 l 1299.16,1299.1 c -55.23,207.1 -131.76,407 -227.77,596.4 h 59.16 c 87.56,-176.6 158.68,-361.6 211.69,-553.3 l 553.29,553.3 h 75.11 l -612.62,-612.6 c 48.91,-191.1 79.95,-388.6 91.79,-589.6 L 8112.47,16300 h 75.14 l 1202.04,-1202.1 c 11.82,201 42.87,398.4 91.77,589.6 l -612.47,612.5 h 75.06 l 553.22,-553.2 c 52.98,191.6 124.05,376.7 211.58,553.2 h 59.17 c -95.93,-189.4 -172.46,-389.2 -227.71,-596.3 l 1299.13,-1299 c -11.3,595 -178.3,1152 -461.5,1631.7 -53.5,90.7 -111.3,178.6 -172.9,263.6 h 65 c 54.4,-76.6 105.6,-155.6 153.5,-236.7 229.8,-389.3 384.3,-828.4 443.1,-1297.1 l 0.1,0.8 c 58.8,468.4 213.3,907.2 443,1296.3 47.9,81.1 99.1,160.1 153.5,236.7 h 65.1 c -61.6,-85 -119.5,-172.9 -173,-263.6 -283.2,-479.7 -450.1,-1036.8 -461.5,-1631.9 l 1299.1,1299.1 c -55.1,207.1 -131.7,407 -227.7,596.4 h 59.2 c 87.5,-176.6 158.7,-361.6 211.7,-553.3 l 553.3,553.3 h 75.1 l -612.6,-612.6 c 48.9,-191.1 79.9,-388.6 91.7,-589.6 l 1202.2,1202.2 h 75.1 L 14823,15097.9 c 11.8,201 42.8,398.4 91.7,589.6 l -612.5,612.5 h 75.2 l 553.1,-553.2 c 53,191.6 124.1,376.7 211.6,553.2 h 59.2 c -95.9,-189.4 -172.5,-389.2 -227.7,-596.3 l 1299.1,-1299 c -11.3,595 -178.3,1152 -461.5,1631.7 -53.5,90.7 -111.3,178.6 -172.9,263.6 h 65 c 54.4,-76.6 105.6,-155.6 153.5,-236.7 229.8,-389.3 384.3,-828.4 443.1,-1297.1 l 0.1,0.8 v -464.8 l -18.8,18.8 -1322.9,1322.9 c -47.3,-193.4 -76.2,-393.1 -85,-596.3 L 16300,13620.9 v -1547 l -0.1,0.1 c -354.7,-224.2 -654.7,-515.1 -886.8,-851.3 104.5,-111.9 201.5,-230.8 290.2,-356 54.4,-76.6 105.6,-155.6 153.5,-236.7 229.8,-389.3 384.3,-828.38 443.1,-1297.09 l 0.1,0.8 v -464.8 l -18.8,18.79 -1322.9,1322.9 c -47.3,-193.5 -76.2,-393.12 -85,-596.28 L 16300,8187.59 V 6640.57 l -0.1,0.08 c -354.7,-224.13 -654.7,-515.08 -886.8,-851.27 104.5,-111.82 201.5,-230.73 290.2,-356 z m -502,0 c -95.9,-189.4 -172.5,-389.16 -227.7,-596.25 l 1299.1,-1299.12 c -11.3,595.12 -178.3,1152.09 -461.5,1631.72 -53.5,90.71 -111.3,178.65 -172.9,263.65 -79,108.73 -164.3,212.72 -255.6,311.01 -34.1,-51.51 -66.9,-103.91 -98,-157.38 -29.1,-50.37 -57,-101.63 -83.4,-153.63 z m -823.9,0 -378.2,378.25 573.1,573.11 c 286.5,-161.78 547.1,-364.72 773.2,-600.82 -37.5,-55.67 -72.9,-112.39 -106.6,-170.34 -34.2,-59 -66.5,-119.07 -96.8,-180.2 -87.5,-176.45 -158.6,-361.69 -211.6,-553.22 l -553.1,553.22 z m -756.5,0 1202.1,-1202.04 c 11.8,200.97 42.8,398.29 91.7,589.49 l -612.5,612.55 -340.6,340.67 -340.7,-340.67 z m -756.4,0 -612.6,-612.64 c 48.9,-191.11 79.9,-388.59 91.7,-589.57 l 1202.2,1202.21 -340.7,340.67 -340.6,-340.67 z m -840.1,0 c -30.4,61.13 -62.6,121.2 -96.8,180.2 -33.7,57.95 -69.3,114.67 -106.5,170.34 226.2,236.1 486.6,439.12 773.3,600.82 l 573.2,-573.11 -378.2,-378.25 -553.3,-553.3 c -53,191.61 -124.2,376.77 -211.7,553.3 z m -496.1,0 c -61.6,-85 -119.5,-172.94 -173,-263.65 -283.2,-479.63 -450.1,-1036.77 -461.5,-1631.88 l 1299.1,1299.19 c -55.1,207.1 -131.7,406.94 -227.7,596.34 -26.3,52 -54.3,103.26 -83.4,153.63 -31.1,53.47 -63.7,105.87 -97.8,157.38 -91.4,-98.29 -176.6,-202.28 -255.7,-311.01 z m 4393.4,-2375.97 -953.2,-953.31 c 48.9,-191.12 80,-388.44 91.9,-589.42 l 1202,1202.05 -340.7,340.68 z M 5055.16,13924 l -953.3,-953.3 c 48.91,-191.1 80.04,-388.4 91.9,-589.4 l 1202.05,1202.1 -340.65,340.6 v 0" /></g></g></g></svg>